<svg width="434" height="60" viewBox="0 0 434 60" fill="none" xmlns="http://www.w3.org/2000/svg">
<path d="M7.33838 57.7437C6.43506 58.4028 5.39746 58.7324 4.22559 58.7324C3.07812 58.7324 2.15039 58.4395 1.44238 57.8535C0.758789 57.2432 0.416992 56.5474 0.416992 55.7661C0.416992 54.9849 0.539062 54.4111 0.783203 54.0449C1.49121 54.46 2.61426 54.6675 4.15234 54.6675C4.7627 54.6675 5.43408 54.3623 6.1665 53.752C6.89893 53.1172 7.48486 52.2505 7.92432 51.1519V33.9766C7.92432 32.8291 7.68018 31.9746 7.19189 31.4131C6.45947 30.5342 5.21436 29.6675 3.45654 28.813C5.23877 27.9585 6.36182 27.2505 6.82568 26.689C7.55811 25.7612 7.92432 24.7236 7.92432 23.5762L7.96094 7.60938C7.375 6.07129 6.08105 5.30225 4.0791 5.30225C3.05371 5.30225 2.29688 5.50977 1.80859 5.9248C1.56445 5.60742 1.44238 5.19238 1.44238 4.67969C1.44238 4.16699 1.55225 3.70312 1.77197 3.28809C1.9917 2.87305 2.29688 2.50684 2.6875 2.18945C3.51758 1.55469 4.62842 1.2373 6.02002 1.2373C7.41162 1.2373 8.55908 1.64014 9.4624 2.4458C10.2681 1.64014 11.208 1.2373 12.2822 1.2373C13.3564 1.2373 14.272 1.68896 15.0288 2.59229C15.981 1.68896 16.8232 1.2373 17.5557 1.2373C18.2881 1.2373 18.8496 1.29834 19.2402 1.42041C19.6309 1.54248 20.0215 1.77441 20.4121 2.11621C21.1934 2.72656 22.0112 3.95947 22.8657 5.81494L36.8916 34.9287L48.4639 6.40088L49.4893 4.02051C50.0996 2.67773 50.6733 1.88428 51.2104 1.64014C51.7476 1.37158 52.3701 1.2373 53.0781 1.2373C53.8105 1.2373 54.5552 1.50586 55.312 2.04297C56.2397 1.50586 57.4482 1.2373 58.9375 1.2373C60.4512 1.2373 61.7573 1.64014 62.856 2.4458C63.8325 1.64014 64.8457 1.2373 65.8955 1.2373C66.9697 1.2373 67.7998 1.32275 68.3857 1.49365C68.9961 1.66455 69.521 1.89648 69.9604 2.18945C70.8882 2.84863 71.3521 3.6665 71.3521 4.64307C71.3521 5.13135 71.2178 5.55859 70.9492 5.9248C70.4121 5.50977 69.7285 5.30225 68.8984 5.30225C67.043 5.30225 65.7856 6.16895 65.1265 7.90234V23.5762C65.1265 24.7725 65.3828 25.6636 65.8955 26.2495C66.7012 27.2017 67.9341 28.0562 69.5942 28.813C67.812 29.6919 66.6768 30.4121 66.1885 30.9736C65.4805 31.8525 65.1265 32.8535 65.1265 33.9766V51.8843C65.9565 53.7397 67.458 54.6675 69.6309 54.6675C70.4609 54.6675 71.1445 54.46 71.6816 54.0449C71.9502 54.4111 72.0845 54.8384 72.0845 55.3267C72.0845 55.7905 71.938 56.23 71.645 56.645C71.3765 57.0601 70.998 57.4141 70.5098 57.707C69.3867 58.3906 68.105 58.7324 66.6646 58.7324C65.2241 58.7324 63.8813 58.3418 62.6362 57.5605C61.4888 58.3418 60.1826 58.7324 58.7178 58.7324C57.1553 58.7324 55.7759 58.3418 54.5796 57.5605C53.3345 58.3418 52.1748 58.7324 51.1006 58.7324C50.0508 58.7324 49.1841 58.6348 48.5005 58.4395C47.8169 58.2686 47.2188 58.0244 46.7061 57.707C45.6562 57.0723 45.1313 56.2788 45.1313 55.3267C45.1313 54.8384 45.2656 54.4111 45.5342 54.0449C46.0713 54.46 46.7549 54.6675 47.585 54.6675C49.7578 54.6675 51.2593 53.7397 52.0894 51.8843V11.8574L37.8071 47.2334L36.2324 50.8223C35.4756 52.5312 34.9385 53.4956 34.6211 53.7153C34.3281 53.9351 34.084 54.0449 33.8887 54.0449C33.2783 54.0449 32.8511 53.9839 32.6069 53.8618L13.0513 15.2998V51.1152C13.5151 52.2383 14.1499 53.1172 14.9556 53.752C15.7612 54.3623 16.6646 54.6675 17.6655 54.6675C18.6665 54.6675 19.521 54.46 20.229 54.0449C20.4976 54.4844 20.6318 55.0947 20.6318 55.876C20.6318 56.6328 20.2534 57.3042 19.4966 57.8901C18.7397 58.4517 17.7632 58.7324 16.5669 58.7324C15.3706 58.7324 14.272 58.4272 13.271 57.8169C12.3921 58.4272 11.3789 58.7324 10.2314 58.7324C9.1084 58.7324 8.14404 58.4028 7.33838 57.7437ZM18.2148 12.187C17.9707 12.5532 17.8486 13.0781 17.8486 13.7617C17.8486 15.7393 18.6787 18.3638 20.3389 21.6353L33.6689 48.2588C33.8398 48.0391 33.9253 47.5752 33.9253 46.8672C33.9253 44.7432 32.9121 41.6304 30.8857 37.5288L18.2148 12.187ZM55.605 48.2954C56.8257 47.8315 57.4971 46.2324 57.6191 43.498C57.7656 40.7637 57.8389 36.9795 57.8389 32.1455C57.8389 27.3115 57.8267 24.1011 57.8022 22.5142C57.8022 20.9028 57.79 19.6089 57.7656 18.6323C57.6924 15.7515 57.4116 14.0181 56.9233 13.4321C56.4595 12.8218 56.02 12.4189 55.605 12.2236V48.2954ZM12.5386 48.7715C12.5386 48.9668 12.5508 49.1133 12.5752 49.2109L12.5386 48.7715ZM8.43701 48.7715C8.4126 48.8691 8.40039 49.0156 8.40039 49.2109L8.43701 48.7715ZM79.0425 57.7437C78.1392 58.4028 77.1016 58.7324 75.9297 58.7324C74.7822 58.7324 73.8667 58.4395 73.1831 57.8535C72.4751 57.2432 72.1211 56.5474 72.1211 55.7661C72.1211 54.9849 72.2432 54.4111 72.4873 54.0449C73.1953 54.46 74.062 54.6675 75.0874 54.6675C76.1372 54.6675 76.9185 54.5332 77.4312 54.2646C77.9683 53.9717 78.481 53.5811 78.9692 53.0928L84.1694 37.6753L84.9019 35.1484C85.1216 34.3916 85.2314 33.6958 85.2314 33.061C85.2314 30.8394 84.1816 29.4233 82.082 28.813C84.0107 28.0806 85.3657 27.2871 86.147 26.4326C87.3677 25.0898 88.332 23.3198 89.04 21.1226L93.0684 7.60938C92.2871 6.55957 91.3594 6.03467 90.2852 6.03467C89.2109 6.03467 88.21 6.2666 87.2822 6.73047C87.0381 6.29102 86.916 5.80273 86.916 5.26562C86.916 4.7041 87.0259 4.1792 87.2456 3.69092C87.4897 3.20264 87.8193 2.77539 88.2344 2.40918C89.1621 1.62793 90.4805 1.2373 92.1895 1.2373C93.8984 1.2373 95.3511 1.75 96.5474 2.77539C97.7681 1.75 99.2817 1.2373 101.088 1.2373C102.919 1.2373 104.372 1.72559 105.446 2.70215C107.009 1.72559 108.596 1.2373 110.207 1.2373C111.818 1.2373 113.063 1.54248 113.942 2.15283C114.846 2.76318 115.297 3.59326 115.297 4.64307C115.297 5.13135 115.151 5.55859 114.858 5.9248C114.296 5.50977 113.637 5.30225 112.88 5.30225C111.245 5.30225 110.183 6.41309 109.694 8.63477L114.382 23.6128C114.968 25.4927 116.433 26.9575 118.776 28.0073C119.436 28.3003 120.107 28.5688 120.791 28.813C118.349 29.6187 117.128 30.8271 117.128 32.4385C117.128 33.0488 117.226 33.5859 117.421 34.0498L124.416 52.7998C125.49 53.9229 126.577 54.4844 127.675 54.4844C128.774 54.4844 129.628 54.2769 130.239 53.8618C130.507 54.0571 130.642 54.4233 130.642 54.9604C130.642 55.4976 130.556 55.998 130.385 56.4619C130.214 56.9014 129.946 57.292 129.58 57.6338C128.798 58.3662 127.651 58.7324 126.137 58.7324C124.624 58.7324 123.305 58.3174 122.182 57.4873C120.913 58.3174 119.472 58.7324 117.861 58.7324C116.274 58.7324 114.907 58.3296 113.759 57.5239C112.661 58.3296 111.367 58.7324 109.877 58.7324C108.388 58.7324 107.155 58.4272 106.179 57.8169C105.202 57.1821 104.689 56.291 104.641 55.1436C104.641 54.46 104.775 54.0327 105.043 53.8618C105.703 54.2769 106.374 54.4844 107.058 54.4844C108.498 54.4844 109.511 54.1914 110.097 53.6055L107.314 44.2671H87.502L85.085 52.3604C86.0859 53.8984 87.2944 54.6675 88.7104 54.6675C90.1509 54.6675 91.2251 54.46 91.9331 54.0449C92.2017 54.4844 92.3359 55.0947 92.3359 55.876C92.3359 56.6328 91.9575 57.3042 91.2007 57.8901C90.4438 58.4517 89.4673 58.7324 88.271 58.7324C87.0747 58.7324 85.9761 58.4272 84.9751 57.8169C84.0962 58.4272 83.083 58.7324 81.9355 58.7324C80.8125 58.7324 79.8481 58.4028 79.0425 57.7437ZM105.812 39.3232L97.3164 11.0884L88.9668 39.3232H105.812ZM112.807 48.2954C113.247 48.2954 113.466 47.8071 113.466 46.8306C113.466 45.1216 113.21 43.4614 112.697 41.8501L111.306 37.5654C110.329 34.3428 109.841 32.3164 109.841 31.4863C109.816 30.1191 110.415 29.2158 111.635 28.7764C109.951 28.4346 108.925 27.9097 108.559 27.2017C108.388 26.9087 108.242 26.6768 108.12 26.5059C108.022 26.335 107.912 26.1396 107.79 25.9199C107.692 25.6758 107.57 25.3706 107.424 25.0044C107.277 24.6382 107.082 24.1133 106.838 23.4297L104.567 16.5815C104.03 14.8726 103.237 13.5786 102.187 12.6997C101.87 12.4312 101.577 12.2725 101.308 12.2236C102.944 18.1318 104.018 21.916 104.531 23.5762C108.071 34.4648 110.195 40.9224 110.903 42.9487L112.807 48.2954ZM123.61 51.5913L123.684 51.811L123.61 51.5913ZM137.38 57.7437C136.477 58.4028 135.439 58.7324 134.267 58.7324C133.12 58.7324 132.192 58.4395 131.484 57.8535C130.8 57.2432 130.458 56.5474 130.458 55.7661C130.458 54.9849 130.581 54.4111 130.825 54.0449C131.533 54.46 132.644 54.6675 134.157 54.6675C135.695 54.6675 136.965 53.6299 137.966 51.5547V33.9766C137.966 32.8291 137.722 31.9746 137.233 31.4131C136.501 30.5342 135.256 29.6675 133.498 28.813C135.28 27.9585 136.403 27.2505 136.867 26.689C137.6 25.7612 137.966 24.7236 137.966 23.5762V8.12207C137.136 6.24219 135.634 5.30225 133.461 5.30225C132.631 5.30225 131.948 5.50977 131.411 5.9248C131.142 5.55859 131.008 5.13135 131.008 4.64307C131.008 4.15479 131.13 3.70312 131.374 3.28809C131.618 2.87305 131.936 2.50684 132.326 2.18945C133.181 1.55469 134.328 1.2373 135.769 1.2373C137.233 1.2373 138.479 1.64014 139.504 2.4458C140.188 1.64014 141.127 1.2373 142.324 1.2373C143.52 1.2373 144.484 1.65234 145.217 2.48242C145.925 1.65234 146.645 1.2373 147.377 1.2373C148.134 1.2373 148.696 1.31055 149.062 1.45703C149.453 1.60352 149.782 1.79883 150.051 2.04297C150.441 2.36035 150.881 2.98291 151.369 3.91064L174.074 44.8164V33.647C174.074 32.5728 173.842 31.7793 173.378 31.2666C172.67 30.5098 171.413 29.6919 169.606 28.813C171.291 27.9829 172.377 27.3115 172.866 26.7988C173.671 25.9443 174.074 24.9922 174.074 23.9424V8.59814C173.513 7.57275 172.817 6.76709 171.987 6.18115C171.181 5.59521 170.253 5.30225 169.204 5.30225C168.178 5.30225 167.312 5.50977 166.604 5.9248C166.335 5.48535 166.201 4.88721 166.201 4.13037C166.201 3.34912 166.579 2.67773 167.336 2.11621C168.093 1.53027 169.082 1.2373 170.302 1.2373C171.523 1.2373 172.609 1.55469 173.562 2.18945C174.416 1.55469 175.393 1.2373 176.491 1.2373C177.614 1.2373 178.603 1.56689 179.458 2.22607C180.41 1.56689 181.459 1.2373 182.607 1.2373C183.754 1.2373 184.67 1.54248 185.354 2.15283C186.062 2.73877 186.416 3.42236 186.416 4.20361C186.416 4.98486 186.293 5.55859 186.049 5.9248C185.341 5.50977 184.206 5.30225 182.644 5.30225C181.081 5.30225 179.836 6.35205 178.908 8.45166V23.9424C178.908 24.9922 179.128 25.7612 179.567 26.2495C180.3 27.0552 181.569 27.9097 183.376 28.813C181.398 29.8872 180.214 30.6318 179.824 31.0469C179.213 31.7061 178.908 32.5728 178.908 33.647L179.567 52.2505C180.446 53.8618 181.826 54.6675 183.706 54.6675C184.536 54.6675 185.219 54.46 185.756 54.0449C186.025 54.4111 186.159 54.8384 186.159 55.3267C186.159 55.8149 186.037 56.2666 185.793 56.6816C185.549 57.0967 185.231 57.4629 184.841 57.7803C183.986 58.415 182.949 58.7324 181.728 58.7324C180.507 58.7324 179.409 58.4883 178.432 58C176.503 59.0986 174.538 59.0132 172.536 57.7437C171.755 58.4028 171.01 58.7324 170.302 58.7324C169.594 58.7324 169.069 58.6714 168.728 58.5493C168.386 58.4272 168.068 58.2075 167.775 57.8901C167.312 57.4263 166.591 56.2666 165.615 54.4111L143.093 15.5928V51.5547C144.094 53.6299 145.363 54.6675 146.901 54.6675C148.439 54.6675 149.562 54.46 150.271 54.0449C150.539 54.4844 150.673 55.0947 150.673 55.876C150.673 56.6328 150.295 57.3042 149.538 57.8901C148.781 58.4517 147.805 58.7324 146.608 58.7324C145.412 58.7324 144.313 58.4272 143.312 57.8169C142.434 58.4272 141.42 58.7324 140.273 58.7324C139.15 58.7324 138.186 58.4028 137.38 57.7437ZM166.018 48.2954C166.188 48.0757 166.274 47.7339 166.274 47.27C166.274 46.7817 166.201 46.2446 166.054 45.6587C165.932 45.0483 165.749 44.4014 165.505 43.7178C164.992 42.3506 164.321 40.8857 163.491 39.3232L147.963 12.2236C147.792 12.4922 147.707 12.9805 147.707 13.6885C147.707 15.2021 148.745 17.8511 150.82 21.6353L166.018 48.2954ZM198.72 57.4507C197.573 58.3052 196.413 58.7324 195.241 58.7324C194.094 58.7324 193.239 58.6348 192.678 58.4395C192.141 58.2441 191.689 57.9756 191.323 57.6338C190.615 56.9746 190.261 56.0957 190.261 54.9971C190.261 54.4355 190.395 54.0571 190.664 53.8618C191.274 54.2769 191.86 54.4844 192.421 54.4844C192.983 54.4844 193.459 54.4478 193.85 54.3745C194.24 54.2769 194.655 54.0815 195.095 53.7886C195.949 53.2026 196.938 51.8477 198.061 49.7236C203.383 39.5674 206.191 33.9277 206.484 32.8047C206.557 32.5117 206.594 32.2798 206.594 32.1089C206.643 30.7417 205.458 29.6431 203.042 28.813C205.898 28.105 207.985 26.9697 209.304 25.4072C209.768 24.8701 210.183 24.272 210.549 23.6128L219.448 7.1333C217.495 6.32764 215.725 5.9248 214.138 5.9248C212.551 5.9248 211.269 6.02246 210.292 6.21777C209.34 6.38867 208.425 6.66943 207.546 7.06006C204.152 8.54932 201.809 11.4668 200.515 15.8125C200.051 17.3506 199.819 18.8276 199.819 20.2437C199.819 21.6597 200.075 22.6851 200.588 23.3198C200.026 23.7837 199.44 24.0156 198.83 24.0156C198.244 24.0156 197.695 23.9058 197.182 23.686C196.669 23.4419 196.218 23.0879 195.827 22.624C194.948 21.5986 194.509 20.3047 194.509 18.7422C194.509 17.1553 194.704 15.9224 195.095 15.0435C193.801 14.189 193.154 13.0781 193.154 11.7109C193.154 10.3438 193.618 9.17188 194.545 8.19531C193.764 7.19434 193.374 6.27881 193.374 5.44873C193.374 4.59424 193.483 3.87402 193.703 3.28809C193.947 2.67773 194.289 2.14063 194.729 1.67676C195.632 0.724609 196.73 0.248535 198.024 0.248535C198.659 0.248535 199.245 0.382813 199.782 0.651367C199.685 1.18848 199.636 1.72559 199.636 2.2627C199.636 3.38574 200.148 3.94727 201.174 3.94727C201.931 3.94727 202.98 3.64209 204.323 3.03174C206.911 1.83545 210.036 1.2373 213.698 1.2373C217.385 1.2373 220.424 1.84766 222.817 3.06836C224.257 1.84766 225.844 1.2373 227.578 1.2373C229.311 1.2373 230.8 1.65234 232.045 2.48242C233.071 1.65234 234.084 1.2373 235.085 1.2373C236.11 1.2373 236.867 1.33496 237.355 1.53027C237.868 1.72559 238.308 1.99414 238.674 2.33594C239.431 3.06836 239.809 3.94727 239.809 4.97266C239.809 5.53418 239.675 5.9126 239.406 6.10791C238.771 5.69287 238.112 5.48535 237.429 5.48535C236.77 5.48535 236.22 5.5708 235.781 5.7417C235.341 5.88818 234.926 6.14453 234.536 6.51074C233.803 7.21875 232.9 8.73242 231.826 11.0518C228.237 18.6934 226.296 22.9658 226.003 23.8691C225.734 24.7725 225.6 25.4316 225.6 25.8467C225.6 27.2139 226.467 28.2026 228.2 28.813C226.223 29.2769 224.562 30.0825 223.22 31.23C221.877 32.3774 220.705 33.9521 219.704 35.9541L211.647 52.104C213.869 53.3979 216.555 54.0449 219.704 54.0449C223.537 54.0449 226.662 52.3848 229.079 49.0645C230.544 47.0869 231.496 44.6943 231.936 41.8867C232.033 41.1787 232.082 40.2876 232.082 39.2134C232.082 38.1392 231.826 37.2847 231.313 36.6499C231.875 36.186 232.448 35.9541 233.034 35.9541C233.645 35.9541 234.206 36.0762 234.719 36.3203C235.231 36.5645 235.695 36.9307 236.11 37.4189C236.965 38.4199 237.392 39.6895 237.392 41.2275C237.392 42.7412 237.185 43.9863 236.77 44.9629C238.088 45.8174 238.747 46.9282 238.747 48.2954C238.747 49.6626 238.271 50.8223 237.319 51.7744C238.125 52.7998 238.527 53.7275 238.527 54.5576C238.527 55.3877 238.405 56.1079 238.161 56.7183C237.941 57.3042 237.624 57.8291 237.209 58.293C236.281 59.2451 235.17 59.7212 233.876 59.7212C233.242 59.7212 232.656 59.5869 232.119 59.3184C232.216 58.7812 232.265 58.2441 232.265 57.707C232.265 56.584 231.752 56.0225 230.727 56.0225C229.97 56.0225 228.92 56.3276 227.578 56.938C224.99 58.1343 221.865 58.7324 218.203 58.7324C214.541 58.7324 211.391 58.2563 208.754 57.3042C207.094 58.2563 205.336 58.7324 203.481 58.7324C201.65 58.7324 200.063 58.3052 198.72 57.4507ZM222.744 12.2236C221.059 12.6143 219.545 14.1768 218.203 16.9111L214.76 23.7593C213.833 25.5659 213.161 26.7744 212.746 27.3848C212.331 27.9707 211.818 28.3979 211.208 28.6665C210.622 28.9106 209.829 29.1304 208.828 29.3257C209.316 29.521 209.731 29.814 210.073 30.2046C210.415 30.5952 210.561 31.0103 210.512 31.4497C210.463 31.8647 210.354 32.3042 210.183 32.7681C210.036 33.2075 209.829 33.7324 209.56 34.3428C209.292 34.9287 208.962 35.6123 208.571 36.3936L205.788 42.1431C204.86 44.1206 204.396 45.4756 204.396 46.208C204.396 47.2334 204.616 47.9292 205.056 48.2954L222.744 12.2236ZM251.015 57.4507C249.868 58.3052 248.708 58.7324 247.536 58.7324C246.389 58.7324 245.534 58.6348 244.973 58.4395C244.436 58.2441 243.984 57.9756 243.618 57.6338C242.91 56.9746 242.556 56.0957 242.556 54.9971C242.556 54.4355 242.69 54.0571 242.958 53.8618C243.569 54.2769 244.155 54.4844 244.716 54.4844C245.278 54.4844 245.754 54.4478 246.145 54.3745C246.535 54.2769 246.95 54.0815 247.39 53.7886C248.244 53.2026 249.233 51.8477 250.356 49.7236C255.678 39.5674 258.486 33.9277 258.779 32.8047C258.852 32.5117 258.889 32.2798 258.889 32.1089C258.938 30.7417 257.753 29.6431 255.336 28.813C258.193 28.105 260.28 26.9697 261.599 25.4072C262.062 24.8701 262.478 24.272 262.844 23.6128L271.743 7.1333C269.79 6.32764 268.02 5.9248 266.433 5.9248C264.846 5.9248 263.564 6.02246 262.587 6.21777C261.635 6.38867 260.72 6.66943 259.841 7.06006C256.447 8.54932 254.104 11.4668 252.81 15.8125C252.346 17.3506 252.114 18.8276 252.114 20.2437C252.114 21.6597 252.37 22.6851 252.883 23.3198C252.321 23.7837 251.735 24.0156 251.125 24.0156C250.539 24.0156 249.99 23.9058 249.477 23.686C248.964 23.4419 248.513 23.0879 248.122 22.624C247.243 21.5986 246.804 20.3047 246.804 18.7422C246.804 17.1553 246.999 15.9224 247.39 15.0435C246.096 14.189 245.449 13.0781 245.449 11.7109C245.449 10.3438 245.913 9.17188 246.84 8.19531C246.059 7.19434 245.668 6.27881 245.668 5.44873C245.668 4.59424 245.778 3.87402 245.998 3.28809C246.242 2.67773 246.584 2.14063 247.023 1.67676C247.927 0.724609 249.025 0.248535 250.319 0.248535C250.954 0.248535 251.54 0.382813 252.077 0.651367C251.979 1.18848 251.931 1.72559 251.931 2.2627C251.931 3.38574 252.443 3.94727 253.469 3.94727C254.226 3.94727 255.275 3.64209 256.618 3.03174C259.206 1.83545 262.331 1.2373 265.993 1.2373C269.68 1.2373 272.719 1.84766 275.112 3.06836C276.552 1.84766 278.139 1.2373 279.873 1.2373C281.606 1.2373 283.095 1.65234 284.34 2.48242C285.366 1.65234 286.379 1.2373 287.38 1.2373C288.405 1.2373 289.162 1.33496 289.65 1.53027C290.163 1.72559 290.603 1.99414 290.969 2.33594C291.726 3.06836 292.104 3.94727 292.104 4.97266C292.104 5.53418 291.97 5.9126 291.701 6.10791C291.066 5.69287 290.407 5.48535 289.724 5.48535C289.064 5.48535 288.515 5.5708 288.076 5.7417C287.636 5.88818 287.221 6.14453 286.831 6.51074C286.098 7.21875 285.195 8.73242 284.121 11.0518C280.532 18.6934 278.591 22.9658 278.298 23.8691C278.029 24.7725 277.895 25.4316 277.895 25.8467C277.895 27.2139 278.762 28.2026 280.495 28.813C278.518 29.2769 276.857 30.0825 275.515 31.23C274.172 32.3774 273 33.9521 271.999 35.9541L263.942 52.104C266.164 53.3979 268.85 54.0449 271.999 54.0449C275.832 54.0449 278.957 52.3848 281.374 49.0645C282.839 47.0869 283.791 44.6943 284.23 41.8867C284.328 41.1787 284.377 40.2876 284.377 39.2134C284.377 38.1392 284.121 37.2847 283.608 36.6499C284.169 36.186 284.743 35.9541 285.329 35.9541C285.939 35.9541 286.501 36.0762 287.014 36.3203C287.526 36.5645 287.99 36.9307 288.405 37.4189C289.26 38.4199 289.687 39.6895 289.687 41.2275C289.687 42.7412 289.479 43.9863 289.064 44.9629C290.383 45.8174 291.042 46.9282 291.042 48.2954C291.042 49.6626 290.566 50.8223 289.614 51.7744C290.419 52.7998 290.822 53.7275 290.822 54.5576C290.822 55.3877 290.7 56.1079 290.456 56.7183C290.236 57.3042 289.919 57.8291 289.504 58.293C288.576 59.2451 287.465 59.7212 286.171 59.7212C285.537 59.7212 284.951 59.5869 284.414 59.3184C284.511 58.7812 284.56 58.2441 284.56 57.707C284.56 56.584 284.047 56.0225 283.022 56.0225C282.265 56.0225 281.215 56.3276 279.873 56.938C277.285 58.1343 274.16 58.7324 270.498 58.7324C266.835 58.7324 263.686 58.2563 261.049 57.3042C259.389 58.2563 257.631 58.7324 255.776 58.7324C253.945 58.7324 252.358 58.3052 251.015 57.4507ZM275.039 12.2236C273.354 12.6143 271.84 14.1768 270.498 16.9111L267.055 23.7593C266.127 25.5659 265.456 26.7744 265.041 27.3848C264.626 27.9707 264.113 28.3979 263.503 28.6665C262.917 28.9106 262.124 29.1304 261.123 29.3257C261.611 29.521 262.026 29.814 262.368 30.2046C262.709 30.5952 262.856 31.0103 262.807 31.4497C262.758 31.8647 262.648 32.3042 262.478 32.7681C262.331 33.2075 262.124 33.7324 261.855 34.3428C261.586 34.9287 261.257 35.6123 260.866 36.3936L258.083 42.1431C257.155 44.1206 256.691 45.4756 256.691 46.208C256.691 47.2334 256.911 47.9292 257.351 48.2954L275.039 12.2236ZM297.744 57.7437C296.84 58.4028 295.803 58.7324 294.631 58.7324C293.483 58.7324 292.568 58.4395 291.884 57.8535C291.176 57.2432 290.822 56.5474 290.822 55.7661C290.822 54.9849 290.944 54.4111 291.188 54.0449C291.896 54.46 292.763 54.6675 293.789 54.6675C294.838 54.6675 295.62 54.5332 296.132 54.2646C296.669 53.9717 297.182 53.5811 297.67 53.0928L302.871 37.6753L303.603 35.1484C303.823 34.3916 303.933 33.6958 303.933 33.061C303.933 30.8394 302.883 29.4233 300.783 28.813C302.712 28.0806 304.067 27.2871 304.848 26.4326C306.069 25.0898 307.033 23.3198 307.741 21.1226L311.77 7.60938C310.988 6.55957 310.061 6.03467 308.986 6.03467C307.912 6.03467 306.911 6.2666 305.983 6.73047C305.739 6.29102 305.617 5.80273 305.617 5.26562C305.617 4.7041 305.727 4.1792 305.947 3.69092C306.191 3.20264 306.521 2.77539 306.936 2.40918C307.863 1.62793 309.182 1.2373 310.891 1.2373C312.6 1.2373 314.052 1.75 315.249 2.77539C316.469 1.75 317.983 1.2373 319.79 1.2373C321.621 1.2373 323.073 1.72559 324.147 2.70215C325.71 1.72559 327.297 1.2373 328.908 1.2373C330.52 1.2373 331.765 1.54248 332.644 2.15283C333.547 2.76318 333.999 3.59326 333.999 4.64307C333.999 5.13135 333.852 5.55859 333.559 5.9248C332.998 5.50977 332.338 5.30225 331.582 5.30225C329.946 5.30225 328.884 6.41309 328.396 8.63477L333.083 23.6128C333.669 25.4927 335.134 26.9575 337.478 28.0073C338.137 28.3003 338.808 28.5688 339.492 28.813C337.05 29.6187 335.83 30.8271 335.83 32.4385C335.83 33.0488 335.927 33.5859 336.123 34.0498L343.117 52.7998C344.191 53.9229 345.278 54.4844 346.376 54.4844C347.475 54.4844 348.33 54.2769 348.94 53.8618C349.208 54.0571 349.343 54.4233 349.343 54.9604C349.343 55.4976 349.257 55.998 349.086 56.4619C348.916 56.9014 348.647 57.292 348.281 57.6338C347.5 58.3662 346.352 58.7324 344.838 58.7324C343.325 58.7324 342.006 58.3174 340.883 57.4873C339.614 58.3174 338.173 58.7324 336.562 58.7324C334.975 58.7324 333.608 58.3296 332.46 57.5239C331.362 58.3296 330.068 58.7324 328.579 58.7324C327.089 58.7324 325.856 58.4272 324.88 57.8169C323.903 57.1821 323.391 56.291 323.342 55.1436C323.342 54.46 323.476 54.0327 323.745 53.8618C324.404 54.2769 325.075 54.4844 325.759 54.4844C327.199 54.4844 328.212 54.1914 328.798 53.6055L326.015 44.2671H306.203L303.786 52.3604C304.787 53.8984 305.996 54.6675 307.412 54.6675C308.852 54.6675 309.926 54.46 310.634 54.0449C310.903 54.4844 311.037 55.0947 311.037 55.876C311.037 56.6328 310.659 57.3042 309.902 57.8901C309.145 58.4517 308.168 58.7324 306.972 58.7324C305.776 58.7324 304.677 58.4272 303.676 57.8169C302.797 58.4272 301.784 58.7324 300.637 58.7324C299.514 58.7324 298.549 58.4028 297.744 57.7437ZM324.514 39.3232L316.018 11.0884L307.668 39.3232H324.514ZM331.508 48.2954C331.948 48.2954 332.167 47.8071 332.167 46.8306C332.167 45.1216 331.911 43.4614 331.398 41.8501L330.007 37.5654C329.03 34.3428 328.542 32.3164 328.542 31.4863C328.518 30.1191 329.116 29.2158 330.336 28.7764C328.652 28.4346 327.626 27.9097 327.26 27.2017C327.089 26.9087 326.943 26.6768 326.821 26.5059C326.723 26.335 326.613 26.1396 326.491 25.9199C326.394 25.6758 326.271 25.3706 326.125 25.0044C325.979 24.6382 325.783 24.1133 325.539 23.4297L323.269 16.5815C322.731 14.8726 321.938 13.5786 320.888 12.6997C320.571 12.4312 320.278 12.2725 320.009 12.2236C321.645 18.1318 322.719 21.916 323.232 23.5762C326.772 34.4648 328.896 40.9224 329.604 42.9487L331.508 48.2954ZM342.312 51.5913L342.385 51.811L342.312 51.5913ZM367.47 57.5605C366.225 58.3418 364.809 58.7324 363.222 58.7324C361.635 58.7324 360.219 58.3418 358.974 57.5605C357.729 58.3418 356.569 58.7324 355.495 58.7324C354.445 58.7324 353.579 58.6348 352.895 58.4395C352.211 58.2686 351.613 58.0244 351.101 57.707C350.051 57.0723 349.526 56.2788 349.526 55.3267C349.526 54.8384 349.66 54.4111 349.929 54.0449C350.466 54.46 351.149 54.6675 351.979 54.6675C354.152 54.6675 355.654 53.7397 356.484 51.8843V33.9766C356.484 32.8535 356.252 32.0234 355.788 31.4863C355.056 30.583 353.798 29.6919 352.016 28.813C353.676 28.0562 354.75 27.3848 355.239 26.7988C356.069 25.8467 356.484 24.7725 356.484 23.5762V8.12207C355.654 6.24219 354.152 5.30225 351.979 5.30225C351.149 5.30225 350.466 5.50977 349.929 5.9248C349.66 5.55859 349.526 5.14355 349.526 4.67969C349.526 4.19141 349.66 3.73975 349.929 3.32471C350.222 2.90967 350.612 2.55566 351.101 2.2627C352.224 1.5791 353.505 1.2373 354.946 1.2373C356.411 1.2373 357.753 1.64014 358.974 2.4458C360.244 1.64014 361.66 1.2373 363.222 1.2373C364.785 1.2373 366.201 1.64014 367.47 2.4458C370.229 1.396 373.281 0.871094 376.625 0.871094C379.995 0.871094 382.814 1.17627 385.085 1.78662C387.355 2.39697 389.309 3.26367 390.944 4.38672C394.24 6.65723 396.291 9.81885 397.097 13.8716C397.414 15.6782 398.574 17.0454 400.576 17.9731C398.671 19.0474 397.426 20.7563 396.84 23.1001C395.644 27.9341 392.653 30.9492 387.868 32.1455C390.334 32.8047 392.348 34.1597 393.911 36.2104C395.522 38.3345 396.328 40.8369 396.328 43.7178V47.3799C396.328 50.8955 397.463 53.166 399.733 54.1914C400.417 54.5088 401.162 54.6675 401.967 54.6675C402.773 54.6675 403.444 54.46 403.981 54.0449C404.25 54.4111 404.384 54.8384 404.384 55.3267C404.384 55.7905 404.262 56.23 404.018 56.645C403.774 57.0601 403.444 57.4141 403.029 57.707C402.15 58.3906 401.125 58.7324 399.953 58.7324C398.781 58.7324 397.634 58.415 396.511 57.7803C394.46 58.9033 392.543 59.0132 390.761 58.1099C390.078 58.5249 389.357 58.7324 388.601 58.7324C387.844 58.7324 387.111 58.5615 386.403 58.2197C385.72 57.8779 385.109 57.3164 384.572 56.5352C383.425 54.8506 382.851 52.2627 382.851 48.7715V46.0615C382.851 40.4219 381.24 36.7598 378.017 35.0752C376.943 34.5137 375.686 34.2329 374.245 34.2329H369.96V52.0674C370.62 53.8008 371.877 54.6675 373.732 54.6675C374.562 54.6675 375.246 54.46 375.783 54.0449C376.052 54.4111 376.186 54.9482 376.186 55.6562C376.186 56.3643 375.795 57.0601 375.014 57.7437C374.257 58.4028 373.11 58.7324 371.572 58.7324C370.034 58.7324 368.667 58.3418 367.47 57.5605ZM376.992 5.7417C372.304 5.7417 369.96 7.56055 369.96 11.1982V26.1763C369.96 27.4458 370.461 28.3003 371.462 28.7397C372.414 29.1548 373.818 29.3623 375.673 29.3623C377.553 29.3623 378.859 29.2646 379.592 29.0693C380.349 28.8496 380.996 28.4834 381.533 27.9707C382.631 26.9209 383.181 25.1631 383.181 22.6973V12.0039C383.181 8.95215 381.911 6.99902 379.372 6.14453C378.615 5.87598 377.822 5.7417 376.992 5.7417ZM385.634 8.08545C386.391 9.79443 386.77 12.5288 386.77 16.2886C386.77 22.7583 386.464 26.6279 385.854 27.8975C387.197 27.6289 388.161 25.8345 388.747 22.5142L389.04 21.0127C389.309 19.4258 390.09 18.4126 391.384 17.9731C390.432 17.6558 389.821 17.2773 389.553 16.8379C389.26 16.3252 388.991 15.4585 388.747 14.2378C388.527 12.9927 388.295 11.9917 388.051 11.2349C387.807 10.478 387.551 9.87988 387.282 9.44043C386.818 8.65918 386.269 8.20752 385.634 8.08545ZM360 48.2954C361.22 47.8315 361.892 46.2324 362.014 43.498C362.16 40.7637 362.233 36.9795 362.233 32.1455C362.233 27.3115 362.221 24.1011 362.197 22.5142C362.197 20.9028 362.185 19.6089 362.16 18.6323C362.087 15.7515 361.806 14.0181 361.318 13.4321C360.854 12.8218 360.415 12.4189 360 12.2236C360 20.7197 359.853 25.5537 359.56 26.7256C359.218 27.7021 358.388 28.3979 357.07 28.813C358.535 29.3257 359.365 29.9482 359.56 30.6807C359.853 31.8525 360 36.1372 360 43.5347V48.2954ZM385.268 38.2612C386.245 39.3599 386.733 40.7026 386.733 42.2896V47.1235C386.733 51.1763 387.539 53.3369 389.15 53.6055C389.589 53.6787 390.017 53.6665 390.432 53.5688C389.553 52.2017 389.113 50.7612 389.113 49.2476V44.1206C389.113 42.1919 388.845 40.8247 388.308 40.019C387.38 38.6519 386.367 38.0659 385.268 38.2612ZM424.379 57.5605C423.134 58.3418 421.718 58.7324 420.131 58.7324C418.544 58.7324 417.128 58.3418 415.883 57.5605C414.638 58.3418 413.479 58.7324 412.404 58.7324C411.354 58.7324 410.488 58.6348 409.804 58.4395C409.121 58.2686 408.522 58.0244 408.01 57.707C406.96 57.0723 406.435 56.2788 406.435 55.3267C406.435 54.8384 406.569 54.4111 406.838 54.0449C407.375 54.46 408.059 54.6675 408.889 54.6675C411.062 54.6675 412.563 53.7397 413.393 51.8843V33.9766C413.393 32.8535 413.161 32.0234 412.697 31.4863C411.965 30.583 410.708 29.6919 408.925 28.813C410.585 28.0562 411.66 27.3848 412.148 26.7988C412.978 25.8467 413.393 24.7725 413.393 23.5762V8.12207C412.563 6.24219 411.062 5.30225 408.889 5.30225C408.059 5.30225 407.375 5.50977 406.838 5.9248C406.569 5.55859 406.435 5.14355 406.435 4.67969C406.435 4.19141 406.569 3.73975 406.838 3.32471C407.131 2.90967 407.521 2.55566 408.01 2.2627C409.133 1.5791 410.415 1.2373 411.855 1.2373C413.32 1.2373 414.663 1.64014 415.883 2.4458C417.153 1.64014 418.569 1.2373 420.131 1.2373C421.694 1.2373 423.11 1.64014 424.379 2.4458C425.6 1.64014 426.748 1.2373 427.822 1.2373C428.896 1.2373 429.775 1.33496 430.458 1.53027C431.142 1.70117 431.74 1.94531 432.253 2.2627C433.303 2.89746 433.828 3.69092 433.828 4.64307C433.828 5.13135 433.693 5.55859 433.425 5.9248C432.888 5.50977 432.204 5.30225 431.374 5.30225C429.201 5.30225 427.7 6.24219 426.87 8.12207V23.5762C426.87 24.7725 427.126 25.6636 427.639 26.2495C428.444 27.2017 429.677 28.0562 431.337 28.813C429.555 29.6919 428.42 30.4121 427.932 30.9736C427.224 31.8525 426.87 32.8535 426.87 33.9766V51.8843C427.7 53.7397 429.201 54.6675 431.374 54.6675C432.204 54.6675 432.888 54.46 433.425 54.0449C433.693 54.4111 433.828 54.8384 433.828 55.3267C433.828 55.7905 433.681 56.23 433.388 56.645C433.12 57.0601 432.741 57.4141 432.253 57.707C431.13 58.3906 429.848 58.7324 428.408 58.7324C426.967 58.7324 425.625 58.3418 424.379 57.5605ZM416.909 48.2954C418.129 47.8315 418.801 46.2324 418.923 43.498C419.069 40.7637 419.143 36.9795 419.143 32.1455C419.143 27.3115 419.13 24.1011 419.106 22.5142C419.106 20.9028 419.094 19.6089 419.069 18.6323C418.996 15.7515 418.715 14.0181 418.227 13.4321C417.763 12.8218 417.324 12.4189 416.909 12.2236C416.909 20.7197 416.762 25.5537 416.469 26.7256C416.127 27.7021 415.297 28.3979 413.979 28.813C415.444 29.3257 416.274 29.9482 416.469 30.6807C416.762 31.8525 416.909 36.1372 416.909 43.5347V48.2954Z" fill="white"/>
</svg>
